<svg xmlns="http://www.w3.org/2000/svg" xmlns:xlink="http://www.w3.org/1999/xlink" width="500" zoomAndPan="magnify" viewBox="0 0 375 374.999991" height="500" preserveAspectRatio="xMidYMid meet" version="1.0"><defs><clipPath id="2d430c8dcb"><path d="M 59 60 L 316 60 L 316 316.554688 L 59 316.554688 Z M 59 60 " clip-rule="nonzero"/></clipPath></defs><g clip-path="url(#2d430c8dcb)"><path fill="#84e4a8" d="M 215.359375 188.5625 L 309.488281 94.292969 C 317.199219 86.570312 317.199219 74.046875 309.488281 66.324219 C 301.773438 58.601562 289.269531 58.601562 281.558594 66.324219 L 187.429688 160.59375 L 93.300781 66.324219 C 85.589844 58.601562 73.085938 58.601562 65.375 66.324219 C 57.660156 74.050781 57.660156 86.570312 65.375 94.292969 L 159.503906 188.5625 L 65.375 282.832031 C 57.660156 290.558594 57.660156 303.078125 65.375 310.804688 C 69.230469 314.664062 74.28125 316.597656 79.335938 316.597656 C 84.390625 316.597656 89.445312 314.664062 93.300781 310.804688 L 187.429688 216.535156 L 281.558594 310.804688 C 285.414062 314.664062 290.46875 316.597656 295.523438 316.597656 C 300.578125 316.597656 305.632812 314.664062 309.488281 310.804688 C 317.199219 303.078125 317.199219 290.558594 309.488281 282.832031 Z M 215.359375 188.5625 " fill-opacity="1" fill-rule="nonzero"/></g></svg>