<svg xmlns="http://www.w3.org/2000/svg" xmlns:xlink="http://www.w3.org/1999/xlink" width="500" zoomAndPan="magnify" viewBox="0 0 375 374.999991" height="500" preserveAspectRatio="xMidYMid meet" version="1.0"><defs><clipPath id="b354b34b64"><path d="M 75.527344 135.730469 L 188.777344 135.730469 L 188.777344 239.230469 L 75.527344 239.230469 Z M 75.527344 135.730469 " clip-rule="nonzero"/></clipPath><clipPath id="16958ced5b"><path d="M 186.21875 135.730469 L 299.328125 135.730469 L 299.328125 239.230469 L 186.21875 239.230469 Z M 186.21875 135.730469 " clip-rule="nonzero"/></clipPath></defs><g clip-path="url(#b354b34b64)"><path fill="#84e4a8" d="M 142.648438 135.800781 L 114.464844 135.742188 C 110.855469 135.730469 107.519531 137.386719 105.710938 140.082031 L 76.886719 182.988281 C 75.984375 184.335938 75.53125 185.839844 75.527344 187.347656 L 101.351562 187.402344 C 101.355469 185.4375 101.867188 183.476562 102.886719 181.71875 L 114.21875 162.175781 C 116.253906 158.660156 120.007812 156.5 124.070312 156.511719 L 136.09375 156.539062 Z M 187.0625 204.328125 L 165.601562 234.878906 C 163.792969 237.570312 160.457031 239.226562 156.851562 239.21875 L 128.664062 239.15625 L 135.222656 218.421875 L 146.507812 218.445312 C 150.570312 218.457031 154.324219 216.296875 156.359375 212.78125 L 160.332031 205.59375 C 161.351562 203.839844 161.863281 201.875 161.867188 199.914062 L 188.425781 199.972656 C 188.421875 201.476562 187.96875 202.980469 187.0625 204.328125 " fill-opacity="1" fill-rule="nonzero"/><path fill="#e3ebf2" d="M 188.765625 199.972656 C 188.769531 198.464844 188.320312 196.957031 187.421875 195.609375 L 176.503906 179.195312 L 142.921875 179.121094 L 122.484375 179.074219 C 119.882812 179.070312 118.171875 181.789062 119.300781 184.136719 L 124.523438 194.984375 C 125.953125 197.949219 128.949219 199.835938 132.238281 199.84375 L 157.039062 199.902344 Z M 135.359375 156.535156 L 188.425781 156.667969 L 177.503906 140.257812 C 175.707031 137.554688 172.378906 135.886719 168.773438 135.875 L 128.894531 135.773438 Z M 114.234375 239.125 C 110.625 239.117188 107.296875 237.445312 105.5 234.742188 L 76.871094 191.707031 C 75.972656 190.355469 75.523438 188.847656 75.527344 187.347656 L 101.351562 187.402344 C 101.347656 189.367188 101.847656 191.332031 102.859375 193.09375 L 114.105469 212.6875 C 116.125 216.210938 119.871094 218.386719 123.933594 218.394531 L 135.953125 218.421875 L 142.421875 239.1875 L 114.234375 239.125 " fill-opacity="1" fill-rule="nonzero"/></g><g clip-path="url(#16958ced5b)"><path fill="#84e4a8" d="M 232.34375 135.800781 L 260.53125 135.742188 C 264.136719 135.730469 267.472656 137.386719 269.28125 140.082031 L 298.105469 182.988281 C 299.011719 184.335938 299.464844 185.839844 299.46875 187.347656 L 273.644531 187.402344 C 273.640625 185.4375 273.128906 183.476562 272.109375 181.71875 L 260.777344 162.175781 C 258.738281 158.660156 254.984375 156.5 250.925781 156.511719 L 238.902344 156.539062 Z M 187.929688 204.328125 L 209.390625 234.878906 C 211.199219 237.570312 214.539062 239.226562 218.144531 239.21875 L 246.332031 239.15625 L 239.773438 218.421875 L 228.484375 218.445312 C 224.425781 218.457031 220.667969 216.296875 218.632812 212.78125 L 214.664062 205.59375 C 213.640625 203.839844 213.132812 201.875 213.128906 199.914062 L 186.570312 199.972656 C 186.574219 201.476562 187.027344 202.980469 187.929688 204.328125 " fill-opacity="1" fill-rule="nonzero"/><path fill="#e3ebf2" d="M 186.230469 199.972656 C 186.226562 198.464844 186.671875 196.957031 187.570312 195.609375 L 198.492188 179.195312 L 232.070312 179.121094 L 252.507812 179.074219 C 255.109375 179.070312 256.824219 181.789062 255.691406 184.136719 L 250.46875 194.984375 C 249.042969 197.949219 246.046875 199.835938 242.757812 199.84375 L 217.953125 199.902344 Z M 239.636719 156.535156 L 186.570312 156.667969 L 197.488281 140.257812 C 199.285156 137.554688 202.617188 135.886719 206.222656 135.875 L 246.101562 135.773438 Z M 260.761719 239.125 C 264.367188 239.117188 267.695312 237.445312 269.492188 234.742188 L 298.125 191.707031 C 299.023438 190.355469 299.46875 188.847656 299.46875 187.347656 L 273.644531 187.402344 C 273.648438 189.367188 273.144531 191.332031 272.132812 193.09375 L 260.890625 212.6875 C 258.867188 216.210938 255.121094 218.386719 251.0625 218.394531 L 239.039062 218.421875 L 232.574219 239.1875 L 260.761719 239.125 " fill-opacity="1" fill-rule="nonzero"/></g></svg>